<svg id="ab9bdc8a-b112-454e-ad7a-068abb0241ba" data-name="Layer 1" xmlns="http://www.w3.org/2000/svg" viewBox="0 0 137.73486 42.12451">
  <defs>
    <style>
      .\35 df81404-f247-4883-986b-42e8be8e9ba9 {
        fill: #b9d3b4;
      }

      .\39 193cc31-5bcd-4fe9-9d06-7a71374bcdfc {
        fill: #6aae9d;
      }
    </style>
  </defs>
  <title>clfullcolor</title>
  <path class="5df81404-f247-4883-986b-42e8be8e9ba9" d="M145.45322,332.35087a12.04636,12.04636,0,0,1-6.13623-1.5459,10.90622,10.90622,0,0,1-4.17529-4.26758,13.87781,13.87781,0,0,1,0-12.54932A10.96315,10.96315,0,0,1,139.294,309.72a12.60024,12.60024,0,0,1,12.13428.02295,9.76936,9.76936,0,0,1,4.03711,4.47559l-3.96777,1.66113a6.50221,6.50221,0,0,0-2.51465-2.67627,7.24583,7.24583,0,0,0-3.76025-.96875,6.79091,6.79091,0,0,0-3.69092,1.01514,6.9967,6.9967,0,0,0-2.5376,2.8374,9.11242,9.11242,0,0,0-.92285,4.17529,8.96707,8.96707,0,0,0,.92285,4.15234,7.08716,7.08716,0,0,0,2.5835,2.83789,6.90747,6.90747,0,0,0,3.7373,1.03809,6.72616,6.72616,0,0,0,6.2749-4.01416l4.01367,1.61475a10.44816,10.44816,0,0,1-4.03711,4.75244A11.19359,11.19359,0,0,1,145.45322,332.35087Z" transform="translate(-133.64218 -299.50028)"/>
  <path class="5df81404-f247-4883-986b-42e8be8e9ba9" d="M170.36728,332.35087a11.79519,11.79519,0,0,1-6.08984-1.5459,11.0032,11.0032,0,0,1-4.12939-4.26758,12.78641,12.78641,0,0,1-1.49951-6.2749,12.9522,12.9522,0,0,1,1.47607-6.27441A10.85627,10.85627,0,0,1,164.231,309.72a12.59229,12.59229,0,0,1,12.08838,0,10.85841,10.85841,0,0,1,4.106,4.26807,14.07037,14.07037,0,0,1,0,12.54932,10.899,10.899,0,0,1-4.083,4.26758A11.49474,11.49474,0,0,1,170.36728,332.35087Zm0-4.01416a6.67576,6.67576,0,0,0,3.69141-1.03809,7.03724,7.03724,0,0,0,2.51416-2.8374,10.244,10.244,0,0,0,0-8.397,6.89721,6.89721,0,0,0-6.29785-3.876,6.75745,6.75745,0,0,0-3.73682,1.03809,7.2014,7.2014,0,0,0-2.5376,2.83789,10.01187,10.01187,0,0,0,0,8.397,7.08264,7.08264,0,0,0,2.5835,2.8374A6.98567,6.98567,0,0,0,170.36728,328.33671Z" transform="translate(-133.64218 -299.50028)"/>
  <path class="5df81404-f247-4883-986b-42e8be8e9ba9" d="M195.83554,331.4744a10.117,10.117,0,0,1-5.46777-1.45361,9.93824,9.93824,0,0,1-3.64453-4.06006,13.18878,13.18878,0,0,1-1.31494-6.021,13.66413,13.66413,0,0,1,1.31494-6.18262,9.73138,9.73138,0,0,1,9.1123-5.58252,8.61522,8.61522,0,0,1,5.00586,1.47607,9.59489,9.59489,0,0,1,3.32178,4.12939,15.19241,15.19241,0,0,1,1.17676,6.20557,14.49475,14.49475,0,0,1-1.17676,6.021,9.30908,9.30908,0,0,1-3.32178,4.03711A8.80861,8.80861,0,0,1,195.83554,331.4744Zm0.415,10.15039a18.63423,18.63423,0,0,1-4.19873-.43848,19.22973,19.22973,0,0,1-3.18359-.99219,13.89562,13.89562,0,0,1-1.9375-.96875l1.66113-3.55273a14.35255,14.35255,0,0,0,1.707.85352,14.96937,14.96937,0,0,0,2.5835.83057,14.35361,14.35361,0,0,0,3.27588.34619,8.16206,8.16206,0,0,0,3.7832-.85352,6.04724,6.04724,0,0,0,2.60693-2.65283,9.892,9.892,0,0,0,.9458-4.61426v-20.854h4.3833V329.49a13.576,13.576,0,0,1-1.49951,6.667,10.00421,10.00421,0,0,1-4.10645,4.0835A12.64861,12.64861,0,0,1,196.25058,341.62479Zm0.69189-13.8418a5.57819,5.57819,0,0,0,3.36816-1.03809,7.11829,7.11829,0,0,0,2.26074-2.81445,9.533,9.533,0,0,0,.83057-4.083,9.38479,9.38479,0,0,0-.83057-4.06006,6.72576,6.72576,0,0,0-2.28369-2.74561,5.87288,5.87288,0,0,0-3.39111-.9917,6.47794,6.47794,0,0,0-3.57568.9917,6.79013,6.79013,0,0,0-2.42236,2.74561,9.77905,9.77905,0,0,0,.02295,8.14307,7.26736,7.26736,0,0,0,2.44531,2.81445A6.25849,6.25849,0,0,0,196.94247,327.783Z" transform="translate(-133.64218 -299.50028)"/>
  <path class="9193cc31-5bcd-4fe9-9d06-7a71374bcdfc" d="M212.96689,331.79716V299.50028h4.3833v32.29688h-4.3833Z" transform="translate(-133.64218 -299.50028)"/>
  <path class="9193cc31-5bcd-4fe9-9d06-7a71374bcdfc" d="M233.86679,332.35087a11.79519,11.79519,0,0,1-6.08984-1.5459,11.0032,11.0032,0,0,1-4.12939-4.26758,12.78641,12.78641,0,0,1-1.49951-6.2749,12.9522,12.9522,0,0,1,1.47607-6.27441,10.85627,10.85627,0,0,1,4.10645-4.26807,12.59229,12.59229,0,0,1,12.08838,0,10.85841,10.85841,0,0,1,4.106,4.26807,14.07037,14.07037,0,0,1,0,12.54932,10.899,10.899,0,0,1-4.083,4.26758A11.49474,11.49474,0,0,1,233.86679,332.35087Zm0-4.01416a6.67576,6.67576,0,0,0,3.69141-1.03809,7.03724,7.03724,0,0,0,2.51416-2.8374,10.244,10.244,0,0,0,0-8.397,6.89721,6.89721,0,0,0-6.29785-3.876,6.75745,6.75745,0,0,0-3.73682,1.03809,7.2014,7.2014,0,0,0-2.5376,2.83789,10.01187,10.01187,0,0,0,0,8.397,7.08264,7.08264,0,0,0,2.5835,2.8374A6.98567,6.98567,0,0,0,233.86679,328.33671Z" transform="translate(-133.64218 -299.50028)"/>
  <path class="9193cc31-5bcd-4fe9-9d06-7a71374bcdfc" d="M259.33505,331.4744a10.117,10.117,0,0,1-5.46777-1.45361,9.93824,9.93824,0,0,1-3.64453-4.06006,13.18878,13.18878,0,0,1-1.31494-6.021,13.66413,13.66413,0,0,1,1.31494-6.18262,9.73138,9.73138,0,0,1,9.1123-5.58252,8.61522,8.61522,0,0,1,5.00586,1.47607,9.59489,9.59489,0,0,1,3.32178,4.12939,15.19241,15.19241,0,0,1,1.17676,6.20557,14.49475,14.49475,0,0,1-1.17676,6.021,9.30908,9.30908,0,0,1-3.32178,4.03711A8.80861,8.80861,0,0,1,259.33505,331.4744Zm0.415,10.15039a18.63423,18.63423,0,0,1-4.19873-.43848,19.22973,19.22973,0,0,1-3.18359-.99219,13.89561,13.89561,0,0,1-1.9375-.96875l1.66113-3.55273a14.35256,14.35256,0,0,0,1.707.85352,14.96937,14.96937,0,0,0,2.5835.83057,14.35361,14.35361,0,0,0,3.27588.34619,8.16206,8.16206,0,0,0,3.7832-.85352,6.04724,6.04724,0,0,0,2.60693-2.65283,9.892,9.892,0,0,0,.9458-4.61426v-20.854h4.3833V329.49a13.576,13.576,0,0,1-1.49951,6.667,10.00421,10.00421,0,0,1-4.10645,4.0835A12.64861,12.64861,0,0,1,259.75009,341.62479ZM260.442,327.783a5.57819,5.57819,0,0,0,3.36816-1.03809,7.11829,7.11829,0,0,0,2.26074-2.81445,9.533,9.533,0,0,0,.83057-4.083,9.38479,9.38479,0,0,0-.83057-4.06006,6.72576,6.72576,0,0,0-2.28369-2.74561,5.87288,5.87288,0,0,0-3.39111-.9917,6.47794,6.47794,0,0,0-3.57568.9917,6.79013,6.79013,0,0,0-2.42236,2.74561,9.77905,9.77905,0,0,0,.02295,8.14307,7.26736,7.26736,0,0,0,2.44531,2.81445A6.25849,6.25849,0,0,0,260.442,327.783Z" transform="translate(-133.64218 -299.50028)"/>
  <path class="5df81404-f247-4883-986b-42e8be8e9ba9" d="M183.91335,322.965l-0.5214-.36225a2.61032,2.61032,0,0,1-1.09436-2.19484c0.00034-.02932-0.002-0.05845-0.0019-0.08777,0.00008-.01928.002-0.0381,0.002-0.05738s-0.0019-.0381-0.002-0.05735c-0.00011-.02932.00224-0.05845,0.0019-0.08777a2.61044,2.61044,0,0,1,1.09436-2.19488l0.5214-.36221a1.86916,1.86916,0,0,0,.55231-2.46963l-2.6163-4.53148a1.86905,1.86905,0,0,0-2.41487-.75652l-0.57441.27041a2.61042,2.61042,0,0,1-2.448-.14964c-0.025-.01483-0.05122-0.0273-0.07636-0.04194-0.01685-.00981-0.0324-0.021-0.04928-0.03073s-0.03422-.01761-0.05111-0.02723c-0.02529-.01445-0.04925-0.031-0.07465-0.04525a2.61044,2.61044,0,0,1-1.35359-2.0452l-0.053-.63266a1.86912,1.86912,0,0,0-1.86259-1.7131H167.659a1.86915,1.86915,0,0,0-1.86263,1.7131l-0.053.63266a2.61035,2.61035,0,0,1-1.35359,2.0452c-0.0254.0143-.04936,0.0308-0.07465,0.04525-0.01688.00962-.03426,0.01749-0.05111,0.02723s-0.03244.02092-.04928,0.03073c-0.02514.01464-.05134,0.02711-0.07636,0.04194a2.61042,2.61042,0,0,1-2.448.14964l-0.57441-.27041a1.86905,1.86905,0,0,0-2.41487.75652l-2.61626,4.53148a1.86911,1.86911,0,0,0,.55227,2.46963l0.5214,0.36221a2.61044,2.61044,0,0,1,1.09436,2.19488c-0.00034.02932,0.002,0.05845,0.0019,0.08777-0.00008.01924-.002,0.03807-0.002,0.05735s0.0019,0.0381.002,0.05738c0.00011,0.02932-.00224.05845-0.0019,0.08777a2.61032,2.61032,0,0,1-1.09436,2.19484l-0.5214.36225a1.86911,1.86911,0,0,0-.55227,2.46963l2.61626,4.53148a1.86909,1.86909,0,0,0,2.41487.75652l0.57441-.27041a2.61042,2.61042,0,0,1,2.448.14964c0.025,0.01483.05122,0.0273,0.07636,0.04194,0.01685,0.00981.0324,0.021,0.04928,0.03073s0.0343,0.01761.05119,0.02727c0.02529,0.01445.04917,0.031,0.07457,0.04521a2.61035,2.61035,0,0,1,1.35359,2.0452l0.053,0.63266a1.86912,1.86912,0,0,0,1.86263,1.71307h5.23252a1.86908,1.86908,0,0,0,1.86259-1.71307l0.053-.63266a2.61044,2.61044,0,0,1,1.35359-2.0452c0.0254-.01426.04928-0.03076,0.07457-0.04521,0.01688-.00966.0343-0.01753,0.05119-0.02727s0.03244-.02092.04928-0.03073c0.02514-.01464.05134-0.02711,0.07636-0.04194a2.61042,2.61042,0,0,1,2.448-.14964l0.57441,0.27041a1.86909,1.86909,0,0,0,2.41487-.75652l2.6163-4.53148A1.86916,1.86916,0,0,0,183.91335,322.965Zm-13.6381,3.58015a6.28237,6.28237,0,1,1,6.28235-6.28239A6.28237,6.28237,0,0,1,170.27525,326.54512Z" transform="translate(-133.64218 -299.50028)"/>
</svg>
