<svg id="ebf78199-5e32-4c9c-a655-43b83814f006" data-name="Layer 1" xmlns="http://www.w3.org/2000/svg" viewBox="0 0 35.8368 36.27335">
  <defs>
    <style>
      .d2c64222-de60-4124-b24e-9a94c6f14092 {
        fill: #808285;
      }

      .\37 98296ba-6768-4297-8c2d-cf3bf5777554 {
        fill: #414042;
      }
    </style>
  </defs>
  <title>clminibw</title>
  <g>
    <path class="d2c64222-de60-4124-b24e-9a94c6f14092" d="M116.56663,369.19333l-0.59-.21a2.64653,2.64653,0,0,1-1.63-1.84,0.30908,0.30908,0,0,1-.02-0.08c-0.01-.02-0.01-0.04-0.02-0.06,0-.02-0.01-0.04-0.01-0.06a0.18829,0.18829,0,0,1-.02-0.08,2.58956,2.58956,0,0,1,.48-2.4l0.41-.49a1.86539,1.86539,0,0,0-.1-2.53l-3.7-3.7a1.86546,1.86546,0,0,0-2.53-.1l-0.48.41a2.64649,2.64649,0,0,1-2.41.49c-0.03-.01-0.05-0.02-0.08-0.03-0.02,0-.04-0.01-0.06-0.01a0.2569,0.2569,0,0,1-.05-0.02,0.29154,0.29154,0,0,1-.09-0.02,2.61229,2.61229,0,0,1-1.83-1.62994l-0.22-.59a1.86682,1.86682,0,0,0-2.24005-1.18l-5.06,1.36a1.86665,1.86665,0,0,0-1.35,2.14l0.11,0.62a2.63771,2.63771,0,0,1-.78,2.33l-0.01.01-0.05.05-0.04.04-0.04.04-0.06.06a2.70619,2.70619,0,0,1-1.96.82,1.55181,1.55181,0,0,1-.37-0.04l-0.62-.11a1.8666,1.8666,0,0,0-2.14,1.35l-0.7,2.64-0.65,2.42a1.85166,1.85166,0,0,0,1.17,2.24l0.6,0.21a2.65514,2.65514,0,0,1,1.62,1.84,0.08993,0.08993,0,0,1,.01.05,6.24162,6.24162,0,0,1,5.36-3.02,6.22875,6.22875,0,0,1,1.84-4.44,6.1249,6.1249,0,0,1,2.72-1.6,6.25354,6.25354,0,0,1,6.16,1.6,4.29122,4.29122,0,0,1,.53.61l0.01,0.01a6.278,6.278,0,0,1-4.98,10.1,6.258,6.258,0,0,1-3.01,5.36,0.06018,0.06018,0,0,1,.04.01,2.64653,2.64653,0,0,1,1.84,1.63l0.21,0.59a1.86675,1.86675,0,0,0,2.24,1.18l5.06-1.36a1.86708,1.86708,0,0,0,1.37-1.96,1.10738,1.10738,0,0,0-.02-0.18l-0.11-.62a2.52514,2.52514,0,0,1,.2-1.49,2.63938,2.63938,0,0,1,.58-0.84l0.06-.06a73.94916,73.94916,0,0,1,.08-0.08l0.06-.06a2.63774,2.63774,0,0,1,2.33-.78l0.62,0.11a1.85786,1.85786,0,0,0,2.14-1.35l1.36-5.06A1.8667,1.8667,0,0,0,116.56663,369.19333Zm-22.54,13.29a1.85494,1.85494,0,0,0,2.39.2,6.20639,6.20639,0,0,1-2.91-.72Zm-3.89-6.1a1.86738,1.86738,0,0,0,.19,2.4l0.53,0.53a6.21645,6.21645,0,0,1-.72-2.92v-0.01Z" transform="translate(-81.97315 -355)"/>
    <path class="798296ba-6768-4297-8c2d-cf3bf5777554" d="M110.05668,379.0933l-0.53-.36a2.60347,2.60347,0,0,1-1.09-2.19v-0.29a2.63435,2.63435,0,0,1,1.09-2.2l0.53-.36a1.88285,1.88285,0,0,0,.55-2.47l-2.62-4.53a2.03647,2.03647,0,0,0-.31-0.4l-0.01-.01a1.86947,1.86947,0,0,0-2.09-.35l-0.58.27a2.57871,2.57871,0,0,1-2.43994-.15,0.20125,0.20125,0,0,1-.08-0.04c-0.02-.01-0.03-0.02-0.05-0.03s-0.03-.02-0.05-0.03c-0.03-.01-0.05-0.03-0.08-0.04a2.60488,2.60488,0,0,1-1.32-1.84,1.516,1.516,0,0,1-.03-0.21l-0.05-.63a1.86566,1.86566,0,0,0-1.87-1.71h-5.23a1.87006,1.87006,0,0,0-1.66,1.00995,1.8302,1.8302,0,0,0-.2.7l-0.05.63a2.64259,2.64259,0,0,1-1.36,2.05c-0.02.01-.05,0.03-0.07,0.04a64.87314,64.87314,0,0,0-.1.06,0.30093,0.30093,0,0,1-.08.04,2.63724,2.63724,0,0,1-1.97.32,2.47674,2.47674,0,0,1-.48-0.17l-0.57-.27a1.88336,1.88336,0,0,0-2.42.76l-2.61,4.53a1.8623,1.8623,0,0,0,.55,2.47l0.52,0.36a2.61766,2.61766,0,0,1,1.1,2.2v0.29a2.5872,2.5872,0,0,1-1.1,2.19l-0.52.36a1.86455,1.86455,0,0,0-.55,2.47l2.61,4.54a1.8694,1.8694,0,0,0,2.42.75l0.57-.27a2.62845,2.62845,0,0,1,2.45.15,0.29938,0.29938,0,0,0,.08.04,0.2205,0.2205,0,0,0,.05.03,0.21822,0.21822,0,0,0,.05.03c0.02,0.02.05,0.03,0.07,0.05a2.61,2.61,0,0,1,1.36,2.04l0.05,0.63a1.872,1.872,0,0,0,1.86,1.72h5.23a1.8743,1.8743,0,0,0,1.87-1.72l0.05-.63a2.57591,2.57591,0,0,1,1.35-2.04c0.03-.02.05-0.03,0.08-0.05,0.02-.01.03-0.02,0.05-0.03s0.03-.02.05-0.03a0.59353,0.59353,0,0,0,.08-0.04,2.60651,2.60651,0,0,1,2.43994-.15l0.58,0.27a1.85421,1.85421,0,0,0,2.41-.75l1.39-2.41,1.07-1.85,0.16-.28a1.89165,1.89165,0,0,0-.09-2.01A2.0081,2.0081,0,0,0,110.05668,379.0933Zm-13.64,3.59a6.20639,6.20639,0,0,1-2.91-.72,6.293,6.293,0,0,1-3.37-5.56995v-0.01a6.12437,6.12437,0,0,1,.92-3.25,6.27661,6.27661,0,1,1,8.62994,8.62A6.17611,6.17611,0,0,1,96.41667,382.68333Z" transform="translate(-81.97315 -355)"/>
  </g>
</svg>
