<svg width="481" height="123" viewBox="0 0 481 123" fill="none" xmlns="http://www.w3.org/2000/svg">
<path d="M444.966 122.636C438.33 122.636 432.648 121.712 427.92 119.864C423.193 118.015 419.481 115.485 416.784 112.273C414.087 109.061 412.466 105.424 411.92 101.364L432.966 100.182C433.36 101.606 434.087 102.848 435.148 103.909C436.239 104.97 437.648 105.788 439.375 106.364C441.133 106.939 443.193 107.227 445.557 107.227C449.284 107.227 452.36 106.318 454.784 104.5C457.239 102.712 458.466 99.5758 458.466 95.0909V82.8182H457.693C456.814 84.9697 455.481 86.8939 453.693 88.5909C451.905 90.2879 449.678 91.6212 447.011 92.5909C444.375 93.5606 441.345 94.0455 437.92 94.0455C432.83 94.0455 428.163 92.8636 423.92 90.5C419.708 88.1061 416.33 84.4091 413.784 79.4091C411.269 74.3788 410.011 67.9091 410.011 60C410.011 51.8485 411.314 45.1364 413.92 39.8636C416.527 34.5606 419.936 30.6364 424.148 28.0909C428.39 25.5455 432.951 24.2727 437.829 24.2727C441.496 24.2727 444.633 24.9091 447.239 26.1818C449.875 27.4243 452.042 29.0303 453.739 31C455.436 32.9697 456.723 35.0152 457.602 37.1364H458.239V25.1818H480.375V95.2727C480.375 101.182 478.89 106.167 475.92 110.227C472.951 114.288 468.799 117.364 463.466 119.455C458.133 121.576 451.966 122.636 444.966 122.636ZM445.648 77.8636C448.345 77.8636 450.648 77.1515 452.557 75.7273C454.466 74.303 455.936 72.2576 456.966 69.5909C457.996 66.9243 458.511 63.7273 458.511 60C458.511 56.2121 457.996 52.9546 456.966 50.2273C455.966 47.4697 454.496 45.3485 452.557 43.8636C450.648 42.3788 448.345 41.6364 445.648 41.6364C442.89 41.6364 440.557 42.3939 438.648 43.9091C436.739 45.4242 435.284 47.5606 434.284 50.3182C433.314 53.0455 432.829 56.2727 432.829 60C432.829 63.7273 433.329 66.9243 434.329 69.5909C435.329 72.2576 436.769 74.303 438.648 75.7273C440.557 77.1515 442.89 77.8636 445.648 77.8636Z" fill="white"/>
<path d="M365.761 96.3182C358.428 96.3182 352.125 94.8182 346.852 91.8182C341.61 88.7879 337.564 84.5758 334.716 79.1818C331.898 73.7576 330.489 67.4697 330.489 60.3182C330.489 53.1364 331.898 46.8485 334.716 41.4546C337.564 36.0303 341.61 31.8182 346.852 28.8182C352.125 25.7879 358.428 24.2727 365.761 24.2727C373.095 24.2727 379.383 25.7879 384.625 28.8182C389.898 31.8182 393.943 36.0303 396.761 41.4546C399.61 46.8485 401.034 53.1364 401.034 60.3182C401.034 67.4697 399.61 73.7576 396.761 79.1818C393.943 84.5758 389.898 88.7879 384.625 91.8182C379.383 94.8182 373.095 96.3182 365.761 96.3182ZM365.898 79.5455C368.564 79.5455 370.822 78.7273 372.67 77.0909C374.519 75.4546 375.928 73.1818 376.898 70.2727C377.898 67.3636 378.398 64 378.398 60.1818C378.398 56.303 377.898 52.9091 376.898 50C375.928 47.0909 374.519 44.8182 372.67 43.1818C370.822 41.5455 368.564 40.7273 365.898 40.7273C363.14 40.7273 360.807 41.5455 358.898 43.1818C357.019 44.8182 355.579 47.0909 354.579 50C353.61 52.9091 353.125 56.303 353.125 60.1818C353.125 64 353.61 67.3636 354.579 70.2727C355.579 73.1818 357.019 75.4546 358.898 77.0909C360.807 78.7273 363.14 79.5455 365.898 79.5455Z" fill="white"/>
<path d="M260.295 95V1.90909H282.795V76.7273H321.523V95H260.295Z" fill="white"/>
<path d="M210.716 122.636C204.08 122.636 198.398 121.712 193.67 119.864C188.943 118.015 185.231 115.485 182.534 112.273C179.837 109.061 178.216 105.424 177.67 101.364L198.716 100.182C199.11 101.606 199.837 102.848 200.898 103.909C201.989 104.97 203.398 105.788 205.125 106.364C206.883 106.939 208.943 107.227 211.307 107.227C215.034 107.227 218.11 106.318 220.534 104.5C222.989 102.712 224.216 99.5758 224.216 95.0909V82.8182H223.443C222.564 84.9697 221.231 86.8939 219.443 88.5909C217.655 90.2879 215.428 91.6212 212.761 92.5909C210.125 93.5606 207.095 94.0455 203.67 94.0455C198.58 94.0455 193.913 92.8636 189.67 90.5C185.458 88.1061 182.08 84.4091 179.534 79.4091C177.019 74.3788 175.761 67.9091 175.761 60C175.761 51.8485 177.064 45.1364 179.67 39.8636C182.277 34.5606 185.686 30.6364 189.898 28.0909C194.14 25.5455 198.701 24.2727 203.579 24.2727C207.246 24.2727 210.383 24.9091 212.989 26.1818C215.625 27.4243 217.792 29.0303 219.489 31C221.186 32.9697 222.473 35.0152 223.352 37.1364H223.989V25.1818H246.125V95.2727C246.125 101.182 244.64 106.167 241.67 110.227C238.701 114.288 234.549 117.364 229.216 119.455C223.883 121.576 217.716 122.636 210.716 122.636ZM211.398 77.8636C214.095 77.8636 216.398 77.1515 218.307 75.7273C220.216 74.303 221.686 72.2576 222.716 69.5909C223.746 66.9243 224.261 63.7273 224.261 60C224.261 56.2121 223.746 52.9546 222.716 50.2273C221.716 47.4697 220.246 45.3485 218.307 43.8636C216.398 42.3788 214.095 41.6364 211.398 41.6364C208.64 41.6364 206.307 42.3939 204.398 43.9091C202.489 45.4242 201.034 47.5606 200.034 50.3182C199.064 53.0455 198.579 56.2727 198.579 60C198.579 63.7273 199.079 66.9243 200.079 69.5909C201.079 72.2576 202.519 74.303 204.398 75.7273C206.307 77.1515 208.64 77.8636 211.398 77.8636Z" fill="white"/>
<path d="M86.0454 35.6364H63.3181C63.0151 33.303 62.3939 31.197 61.4545 29.3182C60.5151 27.4394 59.2727 25.8333 57.7272 24.5C56.1818 23.1667 54.3484 22.1515 52.2272 21.4545C50.1363 20.7273 47.8182 20.3636 45.2727 20.3636C40.7576 20.3636 36.8636 21.4697 33.5909 23.6818C30.3485 25.8939 27.8485 29.0909 26.0909 33.2727C24.3636 37.4545 23.5 42.5151 23.5 48.4545C23.5 54.6364 24.3787 59.8182 26.1363 64C27.9242 68.1515 30.4242 71.2879 33.6363 73.4091C36.8787 75.5 40.7121 76.5454 45.1363 76.5454C47.6212 76.5454 49.8788 76.2273 51.9091 75.5909C53.9697 74.9545 55.7727 74.0303 57.3181 72.8182C58.8939 71.5758 60.1818 70.0757 61.1818 68.3182C62.2121 66.5303 62.9242 64.5151 63.3181 62.2727L86.0454 62.4091C85.6515 66.5303 84.4545 70.5909 82.4545 74.5909C80.4848 78.5909 77.7727 82.2424 74.3181 85.5454C70.8636 88.8182 66.6515 91.4242 61.6818 93.3636C56.7424 95.303 51.0757 96.2727 44.6818 96.2727C36.2576 96.2727 28.7121 94.4242 22.0454 90.7273C15.4091 87 10.1666 81.5757 6.31815 74.4545C2.46966 67.3333 0.54541 58.6667 0.54541 48.4545C0.54541 38.2121 2.49997 29.5303 6.40906 22.4091C10.3181 15.2879 15.606 9.87878 22.2727 6.18181C28.9394 2.48484 36.4091 0.636353 44.6818 0.636353C50.3182 0.636353 55.5303 1.42423 60.3181 2.99999C65.106 4.54544 69.3181 6.81817 72.9545 9.81817C76.5909 12.7879 79.5454 16.4394 81.8181 20.7727C84.0909 25.1061 85.5 30.0606 86.0454 35.6364Z" fill="white"/>
<path d="M126.088 28.1927C127.201 22.1919 135.799 22.1919 136.912 28.1927C137.707 32.4853 142.945 34.187 146.112 31.182C150.539 26.9811 157.495 32.0351 154.868 37.5437C152.988 41.4842 156.225 45.9394 160.554 45.3698C166.605 44.5734 169.262 52.7509 163.898 55.6633C160.062 57.7465 160.062 63.2535 163.898 65.3368C169.262 68.2491 166.605 76.4267 160.554 75.6303C156.225 75.0606 152.988 79.5158 154.868 83.4563C157.495 88.9649 150.539 94.019 146.112 89.818C142.945 86.813 137.707 88.5147 136.912 92.8073C135.799 98.8081 127.201 98.8081 126.088 92.8073C125.293 88.5147 120.055 86.813 116.888 89.818C112.461 94.019 105.505 88.9649 108.132 83.4563C110.011 79.5158 106.775 75.0606 102.446 75.6303C96.3953 76.4267 93.7382 68.2491 99.1016 65.3368C102.938 63.2535 102.938 57.7465 99.1016 55.6633C93.7382 52.7509 96.3953 44.5734 102.446 45.3698C106.775 45.9394 110.011 41.4842 108.132 37.5437C105.505 32.0351 112.461 26.9811 116.888 31.182C120.055 34.187 125.293 32.4853 126.088 28.1927Z" fill="#00BD7E"/>
<path d="M149 60.5C149 70.165 141.165 78 131.5 78C121.835 78 114 70.165 114 60.5C114 50.835 121.835 43 131.5 43C141.165 43 149 50.835 149 60.5Z" fill="#090909"/>
</svg>
